<svg width="16" height="16" viewBox="0 0 16 16" fill="none" xmlns="http://www.w3.org/2000/svg">
<rect x="9" y="9" width="7" height="7" rx="3.5" fill="#9CA3AF"/>
<path fill-rule="evenodd" clip-rule="evenodd" d="M3.47325 14.8148C4.08008 14.8148 4.66206 14.5738 5.09116 14.1447C5.52026 13.7156 5.76132 13.1336 5.76132 12.5267C5.76132 11.9199 5.52026 11.3379 5.09116 10.9088C4.66206 10.4797 4.08009 10.2387 3.47325 10.2387C2.86642 10.2387 2.28444 10.4797 1.85535 10.9088C1.42625 11.3379 1.18519 11.9199 1.18519 12.5267C1.18519 13.1336 1.42625 13.7156 1.85535 14.1447C2.28444 14.5738 2.86642 14.8148 3.47325 14.8148ZM5.92921 14.9827C5.27785 15.6341 4.39442 16 3.47325 16C2.55209 16 1.66865 15.6341 1.01729 14.9827C0.365932 14.3313 2.34195e-06 13.4479 2.42248e-06 12.5267C2.50301e-06 11.6056 0.365933 10.7222 1.01729 10.0708C1.52725 9.56083 2.17946 9.22583 2.88066 9.10441L2.88066 6.94496C2.47279 6.94131 2.11612 6.92912 1.81377 6.88843C1.35599 6.82683 0.934932 6.69029 0.595792 6.35072C0.256219 6.01158 0.119682 5.59052 0.0580769 5.13274C-4.30465e-05 4.70086 -2.22772e-05 4.15819 1.32662e-06 3.51373L1.3337e-06 3.43278C-2.21575e-05 2.78832 -4.28318e-05 2.24565 0.0580772 1.81377C0.119682 1.35599 0.256219 0.934934 0.595793 0.595794C0.934933 0.256221 1.35599 0.119684 1.81377 0.0580784C2.24564 -4.05272e-05 2.7883 -1.88161e-05 3.43274 4.78777e-06L3.51376 4.79486e-06C4.15821 -1.86963e-05 4.70087 -4.03126e-05 5.13274 0.0580787C5.59052 0.119685 6.01158 0.256221 6.35072 0.595794C6.69029 0.934933 6.82683 1.35599 6.88843 1.81377C6.92912 2.11613 6.94131 2.47279 6.94496 2.88066L9.05504 2.88066C9.05869 2.47279 9.07088 2.11613 9.11157 1.81377C9.17318 1.35599 9.30971 0.934934 9.64929 0.595795C9.98843 0.256222 10.4095 0.119685 10.8673 0.0580792C11.2991 -3.97357e-05 11.8418 -1.80246e-05 12.4862 5.57925e-06L12.5673 5.58634e-06C13.2117 -1.79048e-05 13.7544 -3.95211e-05 14.1862 0.0580795C14.644 0.119686 15.0651 0.256226 15.4042 0.595808C15.7438 0.934945 15.8803 1.356 15.9419 1.81377C16 2.24564 16 2.78831 16 3.43275L16 3.51376C16 4.15821 16 4.70087 15.9419 5.13274C15.8803 5.59051 15.7438 6.01157 15.4042 6.35071C15.0651 6.69029 14.644 6.82683 14.1862 6.88843C13.7544 6.94655 13.2117 6.94653 12.5673 6.94651L12.4862 6.94651C11.8418 6.94653 11.2991 6.94655 10.8673 6.88843C10.4095 6.82683 9.98843 6.69029 9.64929 6.35072C9.30971 6.01158 9.17318 5.59052 9.11157 5.13274C9.07088 4.83038 9.05869 4.47372 9.05504 4.06585L6.94496 4.06585C6.94131 4.47372 6.92912 4.83038 6.88843 5.13274C6.82683 5.59052 6.69029 6.01158 6.35071 6.35072C6.01158 6.69029 5.59052 6.82683 5.13274 6.88843C4.83038 6.92912 4.47372 6.94131 4.06585 6.94496L4.06585 9.10441C4.76704 9.22583 5.41925 9.56083 5.92921 10.0708C6.58057 10.7222 6.9465 11.6056 6.9465 12.5267C6.9465 13.4479 6.58057 14.3313 5.92921 14.9827ZM14.0282 5.71384C14.3546 5.66991 14.4836 5.59542 14.5657 5.51307L14.5666 5.51226C14.6489 5.43007 14.7234 5.30107 14.7673 4.97467C14.8136 4.6312 14.8148 4.16904 14.8148 3.47326C14.8148 2.77747 14.8136 2.31531 14.7673 1.97184C14.7234 1.64544 14.6489 1.51644 14.5666 1.43426L14.5657 1.43344C14.4836 1.35109 14.3546 1.2766 14.0282 1.23268C13.6847 1.18645 13.2225 1.18519 12.5267 1.18519C11.831 1.18519 11.3688 1.18645 11.0253 1.23267C10.6989 1.2766 10.5699 1.35109 10.4877 1.43344L10.4869 1.43426C10.4046 1.51644 10.3301 1.64544 10.2862 1.97184C10.2399 2.31531 10.2387 2.77747 10.2387 3.47326C10.2387 4.16904 10.2399 4.6312 10.2862 4.97467C10.3301 5.30108 10.4046 5.43007 10.4869 5.51226L10.4877 5.51307C10.5699 5.59542 10.6989 5.66991 11.0253 5.71384C11.3688 5.76006 11.831 5.76132 12.5267 5.76132C13.2225 5.76132 13.6847 5.76006 14.0282 5.71384ZM4.97467 5.71384C5.30107 5.66991 5.43007 5.59542 5.51225 5.51307L5.51307 5.51226C5.59542 5.43007 5.66991 5.30107 5.71384 4.97467C5.76006 4.6312 5.76132 4.16904 5.76132 3.47326C5.76132 2.77747 5.76006 2.31531 5.71384 1.97184C5.66991 1.64544 5.59542 1.51644 5.51307 1.43426L5.51225 1.43344C5.43007 1.35109 5.30107 1.2766 4.97467 1.23267C4.6312 1.18645 4.16904 1.18519 3.47325 1.18519C2.77747 1.18519 2.31531 1.18645 1.97184 1.23267C1.64544 1.2766 1.51644 1.35109 1.43425 1.43344L1.43344 1.43425C1.35109 1.51644 1.2766 1.64544 1.23267 1.97184C1.18645 2.31531 1.18519 2.77747 1.18519 3.47325C1.18519 4.16904 1.18645 4.6312 1.23267 4.97467C1.2766 5.30107 1.35109 5.43007 1.43344 5.51226L1.43425 5.51307C1.51644 5.59542 1.64543 5.66991 1.97184 5.71384C2.31531 5.76006 2.77747 5.76132 3.47325 5.76132C4.16904 5.76132 4.6312 5.76006 4.97467 5.71384Z" fill="#1E293B"/>
</svg>
